<svg width="32" height="32" viewBox="0 0 32 32" fill="none" xmlns="http://www.w3.org/2000/svg">
<path d="M28.069 14.125H3.93103V27.25C3.93103 28.2855 4.79559 29.125 5.86207 29.125H26.1379C27.2044 29.125 28.069 28.2855 28.069 27.25V14.125ZM20.8276 7.5625V5.6875H11.1724V7.5625C11.1724 8.08027 10.7401 8.5 10.2069 8.5C9.67366 8.5 9.24138 8.08027 9.24138 7.5625V5.6875H5.86207C4.79559 5.6875 3.93103 6.52697 3.93103 7.5625V12.25H28.069V7.5625C28.069 6.52697 27.2044 5.6875 26.1379 5.6875H22.7586V7.5625C22.7586 8.08027 22.3263 8.5 21.7931 8.5C21.2599 8.5 20.8276 8.08027 20.8276 7.5625ZM30 27.25C30 29.3211 28.2709 31 26.1379 31H5.86207C3.72911 31 2 29.3211 2 27.25V7.5625C2 5.49143 3.72911 3.8125 5.86207 3.8125H9.24138V1.9375C9.24138 1.41973 9.67366 1 10.2069 1C10.7401 1 11.1724 1.41973 11.1724 1.9375V3.8125H20.8276V1.9375C20.8276 1.41973 21.2599 1 21.7931 1C22.3263 1 22.7586 1.41973 22.7586 1.9375V3.8125H26.1379C28.2709 3.8125 30 5.49143 30 7.5625V27.25Z" fill="url(#paint0_linear_38_111)"/>
<defs>
<linearGradient id="paint0_linear_38_111" x1="2" y1="1" x2="30.3221" y2="1.30726" gradientUnits="userSpaceOnUse">
<stop stop-color="#47331F"/>
<stop offset="1" stop-color="#A68059"/>
</linearGradient>
</defs>
</svg>
