<svg width="32" height="32" viewBox="0 0 32 32" fill="none" xmlns="http://www.w3.org/2000/svg">
<path d="M20 18.3682C20 18.2326 19.9437 18.0908 19.8242 17.9775C19.7028 17.8625 19.5267 17.7891 19.333 17.7891H12.667C12.4733 17.7891 12.2972 17.8625 12.1758 17.9775C12.0563 18.0908 12 18.2326 12 18.3682V30H20V18.3682ZM32 27.8418C32 28.9624 31.5298 30.0257 30.7119 30.8008C29.8957 31.5741 28.7992 31.9999 27.667 32H4.33301C3.20076 31.9999 2.1043 31.5741 1.28809 30.8008C0.470179 30.0257 3.30726e-08 28.9624 3.30726e-08 27.8418V13.6309C-7.8801e-05 13.0176 0.140779 12.4134 0.411133 11.8613C0.647743 11.3782 0.977729 10.9462 1.37988 10.5869L1.55664 10.4375L13.2178 0.969727L13.2236 0.96582L13.3721 0.851562C14.1293 0.297475 15.0534 0 16 0L16.1885 0.00390625C17.0687 0.0406638 17.9211 0.334316 18.6279 0.851562L18.7764 0.96582L18.7822 0.969727L30.4424 10.4375H30.4434C30.926 10.824 31.3185 11.3093 31.5889 11.8613C31.8592 12.4134 32.0001 13.0176 32 13.6309V27.8418ZM22 30H27.667C28.3026 29.9999 28.9021 29.7597 29.3359 29.3486C29.7679 28.9393 30 28.3961 30 27.8418V13.6309L29.9873 13.4023C29.9612 13.1751 29.8952 12.952 29.792 12.7412C29.6886 12.53 29.5486 12.334 29.376 12.1621L29.1934 11.999L29.1885 11.9951L17.5264 2.52637L17.3633 2.40723C17.0268 2.18302 16.6294 2.04395 16.2109 2.00879L16 2C15.4342 2 14.8937 2.19016 14.4736 2.52637L2.81152 11.9951L2.80664 11.999C2.54866 12.2056 2.3458 12.4599 2.20801 12.7412C2.07034 13.0223 1.99992 13.3256 2 13.6309V27.8418C2 28.3961 2.2321 28.9393 2.66406 29.3486C3.09794 29.7597 3.69738 29.9999 4.33301 30H10V18.3682C10 17.6662 10.2952 17.0044 10.8008 16.5254C11.3045 16.0483 11.9768 15.7891 12.667 15.7891H19.333C20.0232 15.7891 20.6955 16.0483 21.1992 16.5254C21.7048 17.0044 22 17.6662 22 18.3682V30Z" fill="url(#paint0_linear_53_69)"/>
<defs>
<linearGradient id="paint0_linear_53_69" x1="0" y1="0" x2="32.3676" y2="0.376226" gradientUnits="userSpaceOnUse">
<stop stop-color="#47331F"/>
<stop offset="1" stop-color="#A68059"/>
</linearGradient>
</defs>
</svg>
