<svg width="33" height="32" viewBox="0 0 33 32" fill="none" xmlns="http://www.w3.org/2000/svg">
<path d="M27.4863 12.4551C27.3515 9.73611 26.2124 7.15577 24.2783 5.22168C22.2154 3.15876 19.4174 2 16.5 2C13.5826 2 10.7846 3.15876 8.72168 5.22168C6.65881 7.28457 5.50004 10.0826 5.5 13C5.5 16.4076 7.40914 20.0096 9.79883 23.1494C12.1424 26.2286 14.8297 28.7107 16.2119 29.9072C16.2963 29.9669 16.3965 30 16.5 30L16.5801 29.9932C16.6547 29.9811 16.7249 29.9511 16.7871 29.9072C18.1691 28.7109 20.8573 26.229 23.2012 23.1494C25.5909 20.0096 27.5 16.4076 27.5 13L27.4863 12.4551ZM20 13C19.9999 11.067 18.4329 9.5 16.5 9.5C14.5671 9.5 13.0001 11.067 13 13C13 14.933 14.567 16.5 16.5 16.5C18.433 16.5 20 14.933 20 13ZM22 13C22 16.0376 19.5376 18.5 16.5 18.5C13.4624 18.5 11 16.0376 11 13C11.0001 9.96248 13.4625 7.5 16.5 7.5C19.5375 7.5 21.9999 9.96248 22 13ZM29.4932 13.3828C29.3591 17.3341 27.178 21.2266 24.793 24.3604C22.6184 27.2175 20.1779 29.5681 18.6504 30.9326L18.0547 31.4561L18.0029 31.498C17.6238 31.7831 17.1722 31.9541 16.7021 31.9922L16.5 32C16.0257 32 15.5626 31.8652 15.1641 31.6133L14.9971 31.498L14.9453 31.4561C13.5251 30.2298 10.6923 27.6257 8.20703 24.3604C5.745 21.1255 3.5 17.0819 3.5 13C3.50004 9.5522 4.86968 6.24558 7.30762 3.80762C9.74559 1.36963 13.0522 0 16.5 0C19.9478 0 23.2544 1.36963 25.6924 3.80762C28.1303 6.24558 29.5 9.5522 29.5 13L29.4932 13.3828Z" fill="url(#paint0_linear_38_168)"/>
<defs>
<linearGradient id="paint0_linear_38_168" x1="4.5" y1="1.00004" x2="28.7769" y2="1.22579" gradientUnits="userSpaceOnUse">
<stop stop-color="#47331F"/>
<stop offset="1" stop-color="#A68059"/>
</linearGradient>
</defs>
</svg>
