<svg width="32" height="32" viewBox="0 0 32 32" fill="none" xmlns="http://www.w3.org/2000/svg">
<path d="M29.125 16C29.125 8.75126 23.2487 2.875 16 2.875C8.75126 2.875 2.875 8.75126 2.875 16C2.875 23.2487 8.75126 29.125 16 29.125C23.2487 29.125 29.125 23.2487 29.125 16ZM15.0625 7.5625C15.0625 7.04473 15.4822 6.625 16 6.625C16.5178 6.625 16.9375 7.04473 16.9375 7.5625V15.4205L22.0443 17.9739L22.1276 18.0215C22.529 18.2758 22.6807 18.7976 22.4636 19.2318C22.2465 19.666 21.7379 19.8581 21.2936 19.6896L21.2057 19.6511L15.5807 16.8386C15.2631 16.6798 15.0625 16.3551 15.0625 16V7.5625ZM31 16C31 24.2843 24.2843 31 16 31C7.71573 31 1 24.2843 1 16C1 7.71573 7.71573 1 16 1C24.2843 1 31 7.71573 31 16Z" fill="url(#paint0_linear_38_104)"/>
<defs>
<linearGradient id="paint0_linear_38_104" x1="1.9375" y1="1.9375" x2="30.3856" y2="2.26817" gradientUnits="userSpaceOnUse">
<stop stop-color="#47331F"/>
<stop offset="1" stop-color="#A68059"/>
</linearGradient>
</defs>
</svg>
